<?xml version="1.0" encoding="utf-8"?>
<svg xmlns="http://www.w3.org/2000/svg" fill="none" height="54" viewBox="0 0 176 54" width="176">
  <g fill="#2279bc">
    <path d="m70.8554.664551h-8.2763v52.016049h8.2763z"/>
    <path d="m115.485 8.09542c-2.447-2.3583-5.339-4.22714-8.498-5.42854-3.516-1.33489-7.2978-2.002329-11.0355-2.002329h-18.5994v52.060549h18.5994c3.7822 0 7.5195-.6674 11.0355-2.0023 3.159-1.1569 6.096-2.9812 8.498-5.3395 2.359-2.3138 4.227-5.1171 5.473-8.2318 1.335-3.3373 1.958-6.897 1.958-10.4567.045-3.5597-.623-7.0749-1.958-10.3676-1.201-3.1147-3.07-5.918-5.473-8.23178zm-.845 18.68838c0 11.1241-7.698 18.8664-18.6885 18.8664h-10.5456v-37.82176h10.5456c11.1245 0 18.6885 7.60886 18.6885 18.91086z"/>
    <path d="m170.26 37.1071v.089c-3.871 5.2505-10.012 8.3653-16.553 8.3208-9.878.3114-18.154-7.4754-18.466-17.3536 0-.4004 0-.8009 0-1.2013 0-10.7681 7.965-18.95544 18.511-18.95544 6.452.08899 12.459 3.20374 16.197 8.40974l5.784-5.206c-2.314-3.38173-5.473-6.14049-9.166-8.00933-4.049-2.09133-8.499-3.20373127-13.038-3.20373127-7.03-.08899243-13.793 2.62528127-18.866 7.47537127-2.492 2.44729-4.45 5.33959-5.784 8.54329-1.424 3.4707-2.181 7.1639-2.136 10.9461-.045 3.6931.667 7.3863 2.091 10.8125 1.29 3.1593 3.248 5.9625 5.696 8.3208 5.072 4.7611 11.791 7.3864 18.777 7.2974 4.628 0 9.211-1.0679 13.349-3.1592 3.693-1.9134 6.897-4.6276 9.344-8.0094z"/>
    <path d="m9.85096 47.6526c2.58074 2.1359 5.51754 3.7822 8.67674 4.8501.1335.0445.3115.089.445.0445h16.5971c.1335 0 .3115 0 .4449-.0445 2.2249-.7564 4.3162-1.8243 6.274-3.1147.2225-.178.3115-.4895.1335-.712-.089-.1334-.267-.2224-.445-.2224h-16.1521c-1.2459 0-2.4473-.6675-3.1147-1.7354-.1335-.178-.356-.3115-.5785-.3115h-11.8805c-.35594 0-.66742.3115-.66742.6675 0 .2225.089.4004.26698.5784z"/>
    <path d="m44.6027 5.73736c-2.4918-2.09132-5.384-3.69319-8.4543-4.7611-.267-.088992-.5784-.133487-.8899-.133487h-16.1076c-.3115 0-.623.044495-.89.133487-2.1358.75644-4.1381 1.77985-6.0514 3.02574-.2225.13349-.3115.44497-.178.66745.089.13349.2225.22248.4004.22248h16.1967c1.2904 0 2.4917.66744 3.1592 1.77985.1335.17798.356.31147.5784.31147h11.7915c.4005 0 .712-.31147.6675-.71194.0445-.22248-.0445-.40046-.2225-.53395z"/>
    <path d="m54.4363 25.6269c-.0445-.534-.4894-.979-1.0234-.979h-10.5011c-.5339 0-1.0234-.3114-1.2459-.8009-.178-.356-.5339-.5784-.9344-.5784h-39.29016c-.711944 0-1.290395.5339-1.334891 1.2459-.0889926.7119-.1334892 1.4238-.088993 2.1358v1.0679c0 .5339.444962.9789 1.023414.9789h10.54563c.5339 0 1.0234.3115 1.2459.8009.178.356.5339.5785.9344.5785h39.2457c.7119 0 1.2903-.534 1.3348-1.2459 0-.712.089-1.4239.089-2.1358 0-.356 0-.712 0-1.0679z"/>
    <path d="m36.4152 16.5052c1.1569 0 2.2693.5784 2.8922 1.5574.2225.3114.534.4449.89.4449h11.6135c.5784 0 1.0234-.4894.9789-1.0234 0-.089 0-.2225 0-.3115-.623-1.6908-1.4239-3.2927-2.3583-4.8056-.267-.4004-.6675-.6674-1.1569-.6229h-44.05127c-.48946-.0445-.97892.2225-1.2459.6229-.57845.9345-1.1124 1.9134-1.55736 2.9368-.17799.4005 0 .9344.40046 1.1124.13349.0445.22248.089.35597.089z"/>
    <path d="m17.9942 36.9292c-1.1569 0-2.2248-.623-2.8478-1.6019-.178-.267-.5339-.445-.8454-.445h-11.61352c-.57846 0-1.02342.445-1.02342 1.0234 0 .1335 0 .267.0445.356.62295 1.6464 1.37938 3.2482 2.26931 4.7611.22248.4005.66744.623 1.1569.623h44.05123c.4895 0 .9344-.2225 1.1569-.623.5785-.9344 1.1124-1.9133 1.5574-2.9367.178-.445 0-.9345-.445-1.1124-.089-.0445-.2225-.0445-.3114-.0445z"/>
  </g>
</svg>